# Blender 4.0.1
# www.blender.org
mtllib special.mtl
o Cube
v 0.156494 -0.000000 1.000000
v 0.156494 3.135449 1.000000
v 0.156494 0.000000 -1.000000
v 0.156494 3.135449 -1.000000
v -0.156494 -0.000000 1.000000
v -0.156494 3.135449 1.000000
v -0.156494 0.000000 -1.000000
v -0.156494 3.135449 -1.000000
vn -0.0000 -1.0000 -0.0000
vn -0.0000 -0.0000 -1.0000
vn -1.0000 -0.0000 -0.0000
vn -0.0000 1.0000 -0.0000
vn 1.0000 -0.0000 -0.0000
vn -0.0000 -0.0000 1.0000
vt 1.000000 0.404943
vt 0.936629 0.404943
vt 0.936629 0.000000
vt 1.000000 0.000000
vt 0.809887 0.634840
vt 0.809887 0.000000
vt 0.873258 0.000000
vt 0.873258 0.634840
vt 0.000000 0.634840
vt 0.000000 0.000000
vt 0.404943 0.000000
vt 0.404943 0.634840
vt 1.000000 0.809887
vt 0.936629 0.809887
vt 0.936629 0.634840
s 0
usemtl Material
f 1/1/1 5/2/1 7/3/1 3/4/1
f 4/5/2 3/6/2 7/7/2 8/8/2
f 8/9/3 7/10/3 5/11/3 6/12/3
f 6/13/4 2/14/4 4/2/4 8/1/4
f 2/12/5 1/11/5 3/6/5 4/5/5
f 6/8/6 5/7/6 1/3/6 2/15/6
